<svg width="16" height="16" viewBox="0 0 16 16" fill="none" xmlns="http://www.w3.org/2000/svg">
<path d="M11 6C11.5523 6 12 5.55228 12 5C12 4.44772 11.5523 4 11 4C10.4477 4 10 4.44772 10 5C10 5.55228 10.4477 6 11 6Z" fill="white"/>
<path fill-rule="evenodd" clip-rule="evenodd" d="M2 0C0.895431 0 0 0.895431 0 2V14C0 15.1046 0.895431 16 2 16H14C15.1046 16 16 15.1046 16 14V2C16 0.895431 15.1046 0 14 0H2ZM14 2H2V11.5132L5.15201 6.47C5.33646 6.17488 5.66109 5.99688 6.0091 6.00004C6.35711 6.0032 6.67844 6.18708 6.8575 6.4855L9.13312 10.2782L10.7318 8.35982C10.9405 8.10932 11.2583 7.97633 11.5832 8.00347C11.9082 8.03061 12.1995 8.21447 12.3638 8.49613L14 11.3011V2ZM13.259 14H2.80425L5.9826 8.91464L8.14251 12.5145C8.30915 12.7922 8.59999 12.9721 8.92292 12.997C9.24585 13.022 9.56088 12.889 9.76823 12.6402L11.355 10.7361L13.259 14Z" fill="white"/>
</svg>
